HIERARCHY
ROOT Hips
{
 OFFSET 0.000000 0.000000 0.000000
 CHANNELS 6 Xposition Yposition Zposition Yrotation Xrotation Zrotation
 JOINT Chest
 {
  OFFSET 0.000000 9.585900 0.002600
  CHANNELS 3 Yrotation Xrotation Zrotation
  JOINT Chest2
  {
   OFFSET 0.000000 9.601200 -0.005300
   CHANNELS 3 Yrotation Xrotation Zrotation
   JOINT Chest3
   {
    OFFSET 0.000000 9.561800 0.000000
    CHANNELS 3 Yrotation Xrotation Zrotation
    JOINT Chest4
    {
     OFFSET 0.000000 9.552100 0.000000
     CHANNELS 3 Yrotation Xrotation Zrotation
     JOINT Neck
     {
      OFFSET 0.000000 14.453000 0.000000
      CHANNELS 3 Yrotation Xrotation Zrotation
      JOINT Head
      {
       OFFSET 0.000000 8.936500 -0.011300
       CHANNELS 3 Yrotation Xrotation Zrotation
       End Site
       {
        OFFSET 0.000000 17.073600 -0.006000
       }
      }
     }
     JOINT RightCollar
     {
      OFFSET -2.921100 9.558500 0.000000
      CHANNELS 3 Yrotation Xrotation Zrotation
      JOINT RightShoulder
      {
       OFFSET -13.519700 0.000000 0.000000
       CHANNELS 3 Yrotation Xrotation Zrotation
       JOINT RightElbow
       {
        OFFSET 0.000000 -29.696600 0.000000
        CHANNELS 3 Yrotation Xrotation Zrotation
        JOINT RightWrist
        {
         OFFSET 0.000000 -24.004700 0.000000
         CHANNELS 3 Yrotation Xrotation Zrotation
         End Site
         {
          OFFSET 0.000000 -17.728500 0.000000
         }
        }
       }
      }
     }
     JOINT LeftCollar
     {
      OFFSET 2.921100 9.558500 0.000000
      CHANNELS 3 Yrotation Xrotation Zrotation
      JOINT LeftShoulder
      {
       OFFSET 13.519700 0.000000 0.000000
       CHANNELS 3 Yrotation Xrotation Zrotation
       JOINT LeftElbow
       {
        OFFSET 0.000000 -29.696600 0.000000
        CHANNELS 3 Yrotation Xrotation Zrotation
        JOINT LeftWrist
        {
         OFFSET 0.000000 -24.004700 0.000000
         CHANNELS 3 Yrotation Xrotation Zrotation
         End Site
         {
          OFFSET 0.000000 -17.728500 0.000000
         }
        }
       }
      }
     }
    }
   }
  }
 }
 JOINT RightHip
 {
  OFFSET -7.771700 -0.012900 -0.001300
  CHANNELS 3 Yrotation Xrotation Zrotation
  JOINT RightKnee
  {
   OFFSET 0.000000 -40.869800 0.001200
   CHANNELS 3 Yrotation Xrotation Zrotation
   JOINT RightAnkle
   {
    OFFSET 0.000000 -39.717900 0.002100
    CHANNELS 3 Yrotation Xrotation Zrotation
    JOINT RightToe
    {
     OFFSET 0.000000 -4.965400 11.033500
     CHANNELS 3 Yrotation Xrotation Zrotation
     End Site
     {
      OFFSET 0.000000 -1.423100 5.872300
     }
    }
   }
  }
 }
 JOINT LeftHip
 {
  OFFSET 7.771700 -0.012900 -0.001300
  CHANNELS 3 Yrotation Xrotation Zrotation
  JOINT LeftKnee
  {
   OFFSET 0.000000 -40.869800 0.001200
   CHANNELS 3 Yrotation Xrotation Zrotation
   JOINT LeftAnkle
   {
    OFFSET 0.000000 -39.717900 0.002100
    CHANNELS 3 Yrotation Xrotation Zrotation
    JOINT LeftToe
    {
     OFFSET 0.000000 -4.965400 11.033500
     CHANNELS 3 Yrotation Xrotation Zrotation
     End Site
     {
      OFFSET 0.000000 -1.423100 5.872300
     }
    }
   }
  }
 }
}
MOTION
Frames: 16
Frame Time: 0.008333
-84.724089 55.690821 -44.784477 -171.613127 -14.341308 -0.348122 -1.171641 15.079269 0.755351 -0.094611 1.405626 0.108615 -0.180369 2.351299 0.180216 -0.813279 13.524954 0.959061 -1.329268 19.223113 -2.856454 -0.760918 -5.379105 -2.731825 -0.087232 -0.776808 1.185171 4.774508 -3.059010 -9.520024 -64.910887 -47.333321 104.656527 -16.159102 12.676819 8.935220 -6.771969 -1.808466 1.355111 2.964424 -10.216349 7.324443 54.441878 -49.536889 -98.379405 10.775140 -6.508782 7.308875 -3.019229 -61.165293 6.358437 -35.778116 85.782664 -41.376200 -10.206724 -18.421952 13.816028 0.117094 0.190761 -0.294039 11.590965 -57.291683 -14.661789 89.232049 70.822002 90.486394 0.975467 -19.167608 -2.541829 -0.134930 0.162169 -0.077115
-84.721085 55.688706 -44.785903 -171.627043 -14.349577 -0.360713 -1.201738 15.063967 0.757737 -0.094444 1.405376 0.107639 -0.157501 2.364803 0.179851 -0.807412 13.526747 0.955419 -1.316207 19.089894 -2.960589 -0.717707 -5.524200 -2.846863 -0.080012 -0.786987 1.184236 4.777675 -3.037709 -9.513207 -64.864219 -47.327503 104.613450 -16.133465 12.669489 8.954490 -6.762208 -1.807930 1.355620 2.944724 -10.213124 7.329955 54.384715 -49.572255 -98.388315 10.748855 -6.493980 7.289432 -3.074919 -61.156735 6.398835 -35.984396 85.778373 -41.568637 -10.173555 -18.461467 13.848835 0.123437 0.156246 -0.268413 11.560079 -57.289698 -14.630887 89.213530 70.811556 90.489829 0.963486 -19.163983 -2.567875 -0.110903 0.167699 -0.066808
-84.719757 55.686641 -44.787014 -171.654197 -14.362782 -0.360449 -1.198433 15.068020 0.756283 -0.094303 1.406055 0.107409 -0.157232 2.365896 0.179413 -0.805816 13.529636 0.952921 -1.297709 18.956261 -3.065734 -0.673768 -5.670241 -2.962199 -0.090184 -0.832268 1.187152 4.802833 -2.990273 -9.508600 -64.829366 -47.321648 104.584313 -16.132437 12.708224 8.960605 -6.763023 -1.835882 1.357529 2.938278 -10.184499 7.335364 54.333307 -49.598359 -98.399523 10.740447 -6.498560 7.284493 -3.097187 -61.143857 6.426149 -35.999042 85.779662 -41.580847 -10.171631 -18.485320 13.889591 0.118943 0.123106 -0.246119 11.559252 -57.279613 -14.616053 89.213645 70.805673 90.500637 0.957295 -19.166622 -2.567386 -0.096348 0.171822 -0.072440
-84.717564 55.684454 -44.787366 -171.681587 -14.375248 -0.364859 -1.187594 15.074681 0.761862 -0.099992 1.405136 0.106948 -0.157277 2.367360 0.179027 -0.811253 13.532707 0.950227 -1.273645 18.822612 -3.170790 -0.629250 -5.816838 -3.076698 -0.076285 -0.853777 1.185345 4.817469 -2.973633 -9.512796 -64.797598 -47.303241 104.555146 -16.178325 12.754793 8.962552 -6.788752 -1.890084 1.350011 2.883091 -10.150135 7.366764 54.333553 -49.598386 -98.376541 10.736928 -6.501460 7.278848 -3.107551 -61.131471 6.456298 -35.984421 85.779952 -41.565943 -10.174704 -18.497796 13.931888 0.114820 0.089943 -0.223503 11.560490 -57.270495 -14.592787 89.212138 70.805422 90.510770 0.946208 -19.170679 -2.572802 -0.079399 0.176660 -0.069157
-84.715030 55.682585 -44.788579 -171.722986 -14.396529 -0.368737 -1.168432 15.088122 0.768477 -0.087890 1.409999 0.107446 -0.170212 2.365583 0.178302 -0.799525 13.537585 0.948838 -1.267731 18.686323 -3.271691 -0.584974 -5.964958 -3.190142 -0.070180 -0.865631 1.185154 4.829158 -2.994168 -9.533850 -64.721868 -47.254001 104.484217 -16.163544 12.737697 8.967141 -6.800017 -1.907922 1.345882 2.824821 -10.152218 7.388072 54.315298 -49.596776 -98.356725 10.735900 -6.501689 7.274142 -3.106611 -61.111152 6.482697 -36.070681 85.772666 -41.646506 -10.127473 -18.505103 13.952912 0.122422 0.057451 -0.196729 11.552063 -57.253815 -14.559929 89.209230 70.792570 90.518761 0.948999 -19.172429 -2.585825 -0.074910 0.181324 -0.067994
-84.710842 55.680217 -44.787531 -171.755319 -14.405150 -0.383069 -1.163307 15.086921 0.780849 -0.068395 1.417428 0.108944 -0.184773 2.363376 0.176950 -0.787568 13.543747 0.948030 -1.262035 18.546821 -3.371748 -0.541454 -6.115419 -3.301893 -0.072457 -0.895563 1.188144 4.857253 -2.984679 -9.550721 -64.682799 -47.227874 104.442091 -16.139650 12.721156 8.966238 -6.794288 -1.914605 1.343169 2.766725 -10.165214 7.400518 54.286801 -49.595756 -98.339360 10.734324 -6.506621 7.272002 -3.140822 -61.104327 6.529045 -36.263461 85.750029 -41.825097 -10.061379 -18.499339 13.954198 0.133505 0.038206 -0.196146 11.528114 -57.252816 -14.517715 89.210105 70.782455 90.536287 0.947248 -19.177909 -2.610501 -0.063576 0.190196 -0.055479
-84.711655 55.678200 -44.786674 -171.781955 -14.420707 -0.370196 -1.159695 15.096333 0.766401 -0.101405 1.409685 0.105871 -0.158505 2.373581 0.178014 -0.789990 13.546459 0.947714 -1.243347 18.408529 -3.474157 -0.498724 -6.268408 -3.411076 -0.057874 -0.920370 1.188044 4.890700 -2.979444 -9.570621 -64.656982 -47.216096 104.406343 -16.110377 12.702145 8.969307 -6.790520 -1.933064 1.333429 2.724584 -10.166483 7.418579 54.259747 -49.592055 -98.322281 10.730836 -6.519237 7.274053 -3.159647 -61.090868 6.539595 -36.194666 85.749626 -41.760862 -10.035485 -18.496468 13.965573 0.150378 0.023302 -0.199322 11.525019 -57.238473 -14.527474 89.215598 70.758252 90.545674 0.968926 -19.182477 -2.628622 -0.070899 0.197736 -0.058622
-84.710950 55.676503 -44.786595 -171.816559 -14.440048 -0.366340 -1.131693 15.113822 0.768177 -0.119104 1.408694 0.104041 -0.158977 2.376173 0.177512 -0.791003 13.547836 0.943561 -1.227608 18.270048 -3.571280 -0.458255 -6.423781 -3.518666 -0.041077 -0.940967 1.190708 4.910140 -2.970078 -9.581043 -64.650468 -47.257030 104.409977 -16.142530 12.680007 8.959279 -6.815744 -1.952829 1.326485 2.712032 -10.169127 7.438698 54.231409 -49.588830 -98.304898 10.724363 -6.531218 7.276756 -3.177307 -61.071836 6.571966 -36.236245 85.739843 -41.804635 -10.022524 -18.490062 13.973182 0.142842 -0.000759 -0.171012 11.521528 -57.223503 -14.518152 89.222976 70.741906 90.561418 0.985561 -19.183368 -2.641197 -0.072649 0.200775 -0.064385
-84.709229 55.674978 -44.786333 -171.840586 -14.456779 -0.372993 -1.131329 15.126541 0.771311 -0.115429 1.412488 0.104891 -0.153554 2.378587 0.177643 -0.806414 13.552640 0.938452 -1.207793 18.129171 -3.670046 -0.421347 -6.579569 -3.625942 -0.019601 -0.967248 1.191653 4.930474 -2.960087 -9.590796 -64.659112 -47.279587 104.421187 -16.156125 12.670973 8.951859 -6.802745 -1.965029 1.322927 2.672349 -10.185957 7.450749 54.227614 -49.579853 -98.276136 10.711204 -6.519401 7.252651 -3.222935 -61.052662 6.622341 -36.238679 85.732276 -41.811302 -9.998209 -18.487330 13.963429 0.103391 -0.031961 -0.092450 11.510808 -57.211434 -14.492523 89.224214 70.742772 90.576960 0.976868 -19.186467 -2.647374 -0.052811 0.205173 -0.062026
-84.708366 55.673708 -44.785861 -171.860875 -14.471898 -0.377955 -1.146066 15.138792 0.769276 -0.101029 1.415987 0.105432 -0.136893 2.379426 0.178748 -0.822043 13.563373 0.935055 -1.200780 17.985536 -3.768773 -0.385741 -6.733678 -3.734131 -0.008281 -0.998931 1.192833 4.961403 -2.964042 -9.616319 -64.676092 -47.286750 104.432475 -16.155196 12.658457 8.942364 -6.819246 -1.987646 1.318812 2.650263 -10.196333 7.462888 54.225742 -49.574346 -98.246554 10.699686 -6.517747 7.243086 -3.264452 -61.036332 6.663436 -36.198151 85.729537 -41.774290 -9.987316 -18.477890 13.977935 0.104133 -0.046748 -0.082012 11.499037 -57.201609 -14.470229 89.227708 70.745262 90.590957 0.972025 -19.186403 -2.653620 -0.038243 0.206713 -0.058171
-84.708803 55.672997 -44.785968 -171.883761 -14.490498 -0.378251 -1.142541 15.155495 0.767121 -0.092338 1.418264 0.107129 -0.149685 2.381717 0.177274 -0.825745 13.571442 0.931425 -1.187960 17.846921 -3.868979 -0.350843 -6.884126 -3.843114 0.014259 -1.024566 1.192855 4.980719 -2.975749 -9.642484 -64.680860 -47.273092 104.430961 -16.134891 12.649619 8.945579 -6.824756 -2.000840 1.310087 2.622689 -10.212467 7.478017 54.215249 -49.579387 -98.231210 10.702329 -6.544955 7.277172 -3.272696 -61.017465 6.681623 -36.181117 85.727038 -41.757193 -9.988570 -18.464801 14.011774 0.118140 -0.059967 -0.083610 11.487578 -57.188576 -14.457203 89.231289 70.737145 90.599957 0.984751 -19.180461 -2.659416 -0.050393 0.204282 -0.052331
-84.710115 55.672836 -44.786439 -171.897688 -14.510900 -0.379493 -1.150986 15.170617 0.761247 -0.080174 1.424474 0.110565 -0.179279 2.386274 0.171773 -0.811824 13.580326 0.933102 -1.177826 17.708873 -3.972714 -0.317803 -7.028412 -3.952191 0.039847 -1.043507 1.189872 4.990215 -2.998741 -9.666595 -64.670400 -47.246527 104.413746 -16.081043 12.631672 8.976342 -6.858392 -2.019913 1.297928 2.624620 -10.224686 7.496470 54.207584 -49.588150 -98.210187 10.696240 -6.553298 7.274095 -3.287236 -60.994012 6.698761 -36.094087 85.727919 -41.674956 -9.987898 -18.460364 14.022012 0.126386 -0.065033 -0.079431 11.462857 -57.174171 -14.440894 89.236389 70.725605 90.607631 0.993784 -19.173642 -2.668998 -0.051699 0.201435 -0.050482
-84.713151 55.673514 -44.788018 -171.914283 -14.538647 -0.374543 -1.143921 15.194238 0.755428 -0.087948 1.426881 0.107076 -0.183133 2.386256 0.173918 -0.813089 13.593399 0.928117 -1.174478 17.577293 -4.070495 -0.286548 -7.165867 -4.062055 0.051944 -1.074727 1.198349 5.002852 -3.008472 -9.692642 -64.667515 -47.238661 104.416474 -16.091905 12.626417 8.976345 -6.845640 -2.030717 1.299908 2.580325 -10.242356 7.501107 54.170372 -49.622723 -98.204511 10.709232 -6.591444 7.308416 -3.340301 -60.957825 6.731076 -35.900279 85.731049 -41.506514 -9.937900 -18.464751 14.038514 0.083327 -0.073496 -0.072719 11.424848 -57.150613 -14.425824 89.243504 70.697279 90.607244 1.018763 -19.169294 -2.683978 -0.068410 0.201384 -0.053758
-84.716108 55.674194 -44.787488 -171.927210 -14.552641 -0.372812 -1.140498 15.202084 0.752749 -0.098118 1.423883 0.105449 -0.174537 2.394346 0.175481 -0.859748 13.609958 0.920234 -1.141147 17.445738 -4.173540 -0.258139 -7.296492 -4.171037 0.070050 -1.123139 1.194696 5.032540 -3.024147 -9.733464 -64.676462 -47.222345 104.442628 -16.143490 12.639931 8.952050 -6.825314 -2.048390 1.292553 2.575194 -10.252131 7.506450 54.160061 -49.635440 -98.189755 10.677129 -6.588095 7.278735 -3.353074 -60.939239 6.748820 -35.955118 85.715974 -41.562348 -9.984182 -18.450129 14.098086 0.107131 -0.073882 -0.083773 11.412397 -57.136928 -14.418481 89.239762 70.682532 90.602307 1.020050 -19.172398 -2.687126 -0.066307 0.206154 -0.056997
-84.718426 55.675168 -44.786020 -171.943657 -14.559724 -0.376333 -1.162442 15.214462 0.746754 -0.099193 1.424710 0.105129 -0.145756 2.388656 0.177528 -0.874459 13.613907 0.916375 -1.138394 17.328542 -4.271511 -0.232740 -7.420070 -4.276601 0.076265 -1.141558 1.194585 5.048356 -3.015605 -9.739360 -64.703263 -47.235143 104.466998 -16.150400 12.640565 8.956243 -6.837485 -2.052773 1.285843 2.562298 -10.261305 7.509427 54.157904 -49.649062 -98.171024 10.672925 -6.592575 7.279366 -3.387359 -60.925621 6.773760 -36.046581 85.691017 -41.649045 -9.949295 -18.444915 14.090780 0.107722 -0.073578 -0.064341 11.394064 -57.133558 -14.400896 89.241312 70.666823 90.601828 1.021274 -19.170929 -2.689868 -0.067609 0.206375 -0.056515
-84.720480 55.676144 -44.782672 -171.962218 -14.554526 -0.381680 -1.158591 15.213435 0.751343 -0.099803 1.424354 0.104875 -0.166494 2.395567 0.174970 -0.860995 13.604844 0.914937 -1.137733 17.216802 -4.366540 -0.210326 -7.537620 -4.378700 0.086393 -1.154792 1.194102 5.042153 -3.031462 -9.759589 -64.693020 -47.220950 104.469925 -16.147052 12.629482 8.960137 -6.864047 -2.056217 1.282295 2.566294 -10.266209 7.509303 54.167886 -49.656361 -98.148797 10.672083 -6.594368 7.279763 -3.432423 -60.923125 6.808813 -35.778527 85.688847 -41.389247 -9.920345 -18.441889 14.091741 0.100115 -0.073587 -0.053660 11.388003 -57.142759 -14.384749 89.241992 70.660354 90.610592 0.999801 -19.170603 -2.693003 -0.050024 0.205648 -0.046272
